# xmcd CD database file
#
# Track frame offsets:
#	150
#	13825
#	27274
#	41213
#	54658
#	67988
#	79872
#	93736
#	107032
#	120161
#	133333
#	145043
#	157513
#	169751
#	182028
#	194917
#	208675
#	223677
#
# Disc length: 3164 seconds
#
# Revision: 4
# Processed by: cddbd v1.5.2PL0 Copyright (c) Steve Scherf et al.
# Submitted via: CDex 1.51
#
DISCID=050c5a12
DTITLE=Erroll Garner - Vol. 7 Love Walked In
DYEAR=2002
DGENRE=Jazz
TTITLE0=Penthouse Serenade
TTITLE1=Love Walked In
TTITLE2=September Song
TTITLE3=Body And Soul
TTITLE4=All The Things You Are
TTITLE5=I Don't Stand A Ghost Of A Chance With You
TTITLE6=Yesterdays
TTITLE7=Goodbye
TTITLE8=A Cottage For Sale
TTITLE9=I'm In The Mood For Love
TTITLE10=I Can't Believe That You're In Love With Me
TTITLE11=More Than You Know
TTITLE12=Undecided
TTITLE13=Red Sails In The Sunset
TTITLE14=All Of Me
TTITLE15=Over The Rainbow
TTITLE16=Cherokee - Part 1
TTITLE17=Cherokee - Part 2
EXTD=YEAR: 2002
EXTT0=
EXTT1=
EXTT2=
EXTT3=
EXTT4=
EXTT5=
EXTT6=
EXTT7=
EXTT8=
EXTT9=
EXTT10=
EXTT11=
EXTT12=
EXTT13=
EXTT14=
EXTT15=
EXTT16=
EXTT17=
PLAYORDER=
